<svg width="50" height="44" viewBox="0 0 50 44" fill="none" xmlns="http://www.w3.org/2000/svg">
<path d="M31.6198 44C29.7841 44 28.086 43.4084 26.5256 42.2253C24.9653 41.0422 23.795 39.3899 23.0148 37.2684L11.5874 6.54798C10.8531 4.46732 10.9679 2.85582 11.9316 1.71349C12.9413 0.571164 14.2722 0 15.9243 0C17.5306 0 18.7467 0.46917 19.5728 1.40751C20.4448 2.30505 21.2479 3.81456 21.9822 5.93602L31.964 33.7191C33.2031 30.5369 34.4193 27.7014 35.6125 25.2128C36.8516 22.6834 37.8842 20.3579 38.7103 18.2364C39.5364 16.0742 39.9723 13.9935 40.0182 11.9944C40.0641 10.9745 39.9723 10.0566 39.7429 9.24061C39.5593 8.42466 39.3528 7.60871 39.1233 6.79277C38.9397 5.93602 38.848 4.99768 38.848 3.97775C38.848 2.99861 39.261 2.10107 40.0871 1.28512C40.9131 0.428372 42.3358 0 44.3551 0C45.8696 0 47.0399 0.509967 47.866 1.5299C48.692 2.50904 49.2428 3.73296 49.5181 5.20167C49.8394 6.62958 50 8.05749 50 9.48539C50 12.8716 49.5411 16.115 48.6232 19.2156C47.7053 22.2754 46.4662 25.274 44.9059 28.2114C43.3914 31.1488 41.7163 34.1678 39.8806 37.2684C39.0545 38.8595 38.2743 40.165 37.54 41.185C36.8057 42.1641 35.9796 42.8781 35.0618 43.3268C34.1898 43.7756 33.0425 44 31.6198 44Z" fill="white"/>
<path d="M3.06667 44C2.22222 44 1.48889 43.7112 0.866667 43.1336C0.288889 42.5148 0 41.7515 0 40.8439V13.2433C0 8.95265 1.24444 5.67276 3.73333 3.40366C6.26667 1.13455 9.91111 0 14.6667 0C23.3111 0 21.4222 15.5214 28.6667 30.25C28.6667 37.5524 31.7778 35.1917 28.6667 38.7398C25.5556 42.2466 20.7778 44 14.3333 44H3.06667ZM9.6 36.6976H14.3333C17.6222 36.6976 20 35.5218 21.4667 33.1702C22.9778 30.7773 23.3111 31.2312 23.3111 25.9503C23.3111 20.917 16.6667 16.5 16.6667 16.5C15.3333 14.3547 18.0444 7.73558 14.8 7.73558C11.3333 7.73558 9.6 8.91139 9.6 11.263V36.6976Z" fill="white"/>
<path d="M44.4444 41.25C44.4444 39.7312 45.6881 38.5 47.2222 38.5C48.7563 38.5 50 39.7312 50 41.25C50 42.7688 48.7563 44 47.2222 44C45.6881 44 44.4444 42.7688 44.4444 41.25Z" fill="white"/>
</svg>
